# xmcd
#
# Track frame offsets: 
#        182
#        3192
#        15900
#        33025
#        35600
#        45607
#        59480
#        78427
#        102925
#        111487
#        124775
#        126677
#        140570
#        156945
#        170092
#        183777
#        187805
#        201730
#        210375
#
# Disc length: 2830 seconds
#
# Revision: 3
# Processed by: cddbd v1.5.1PL0 Copyright (c) Steve Scherf et al.
# Submitted via: ExactAudioCopy v0.90b4
#
DISCID=080b0c13
DTITLE=Cida Moreyra - Cida Canta Chico
DYEAR=1992
DGENRE=MPB
TTITLE0=Morte E Vida Severina 
TTITLE1=Todo O Sentimento
TTITLE2=Choro Bandido
TTITLE3=O Malandro
TTITLE4=Estacão Derradeira
TTITLE5=Angélica
TTITLE6=Beatriz
TTITLE7=Geni E O Zepelin
TTITLE8=Soneto
TTITLE9=Suburbano Coração
TTITLE10=Mar E Lua
TTITLE11=Tatuagem
TTITLE12=Morro Dois Irmãos
TTITLE13=A Voz Do Dono E O Dono Da Voz
TTITLE14=Valsa Brasileira
TTITLE15=Bom Tempo
TTITLE16=Gota D'agua
TTITLE17=Palavra De Mulher
TTITLE18=Valsinha
EXTD=
EXTT0=
EXTT1=
EXTT2=
EXTT3=
EXTT4=
EXTT5=
EXTT6=
EXTT7=
EXTT8=
EXTT9=
EXTT10=
EXTT11=
EXTT12=
EXTT13=
EXTT14=
EXTT15=
EXTT16=
EXTT17=
EXTT18=
PLAYORDER=
